<svg width="159" height="50" viewBox="0 0 159 50" fill="none" xmlns="http://www.w3.org/2000/svg">
<path fill-rule="evenodd" clip-rule="evenodd" d="M54.2188 39.1568C54.2188 45.9749 58.0724 49.7258 63.2719 49.7258C66.0284 49.7258 68.2156 48.6741 69.8331 46.5698V48.8072C69.8331 48.9889 69.9805 49.1363 70.1622 49.1363H75.1782C75.36 49.1363 75.5072 48.9889 75.5072 48.8072V29.8706C75.5072 29.6889 75.36 29.5417 75.1782 29.5417H70.1622C69.9805 29.5417 69.8331 29.6889 69.8331 29.8706V32.1586C68.1012 30.0142 65.9142 28.9421 63.2719 28.9421C58.0007 28.9421 54.2188 33.0391 54.2188 39.1568ZM59.9811 39.341C59.9811 35.962 62.0847 33.8886 64.8635 33.8886C67.6423 33.8886 69.7459 35.6491 69.7459 39.3339C69.7459 43.0188 67.7137 44.7934 64.8631 44.7934C62.0123 44.7934 59.9811 42.7202 59.9811 39.341Z" fill="#2222BF"/>
<mask id="mask0" mask-type="alpha" maskUnits="userSpaceOnUse" x="54" y="28" width="22" height="22">
<path fill-rule="evenodd" clip-rule="evenodd" d="M54.2188 39.1568C54.2188 45.9749 58.0724 49.7258 63.2719 49.7258C66.0284 49.7258 68.2156 48.6741 69.8331 46.5698V48.8072C69.8331 48.9889 69.9805 49.1363 70.1622 49.1363H75.1782C75.36 49.1363 75.5072 48.9889 75.5072 48.8072V29.8706C75.5072 29.6889 75.36 29.5417 75.1782 29.5417H70.1622C69.9805 29.5417 69.8331 29.6889 69.8331 29.8706V32.1586C68.1012 30.0142 65.9142 28.9421 63.2719 28.9421C58.0007 28.9421 54.2188 33.0391 54.2188 39.1568ZM59.9811 39.341C59.9811 35.962 62.0847 33.8886 64.8635 33.8886C67.6423 33.8886 69.7459 35.6491 69.7459 39.3339C69.7459 43.0188 67.7137 44.7934 64.8631 44.7934C62.0123 44.7934 59.9811 42.7202 59.9811 39.341Z" fill="white"/>
</mask>
<g mask="url(#mask0)">
</g>
<path fill-rule="evenodd" clip-rule="evenodd" d="M89.0889 39.1568C89.0889 45.9749 92.9425 49.7258 98.142 49.7258C100.899 49.7258 103.086 48.6741 104.703 46.5698V48.8072C104.703 48.9889 104.85 49.1363 105.032 49.1363H110.048C110.23 49.1363 110.377 48.9889 110.377 48.8072V29.8706C110.377 29.6889 110.23 29.5417 110.048 29.5417H105.032C104.85 29.5417 104.703 29.6889 104.703 29.8706V32.1586C102.971 30.0142 100.784 28.9421 98.142 28.9421C92.8709 28.9421 89.0889 33.0391 89.0889 39.1568ZM94.8512 39.341C94.8512 35.962 96.9546 33.8886 99.7336 33.8886C102.513 33.8886 104.616 35.6491 104.616 39.3339C104.616 43.0188 102.584 44.7934 99.7332 44.7934C96.8822 44.7934 94.8512 42.7202 94.8512 39.341Z" fill="#2222BF"/>
<mask id="mask1" mask-type="alpha" maskUnits="userSpaceOnUse" x="89" y="28" width="22" height="22">
<path fill-rule="evenodd" clip-rule="evenodd" d="M89.0889 39.1568C89.0889 45.9749 92.9425 49.7258 98.142 49.7258C100.899 49.7258 103.086 48.6741 104.703 46.5698V48.8072C104.703 48.9889 104.85 49.1363 105.032 49.1363H110.048C110.23 49.1363 110.377 48.9889 110.377 48.8072V29.8706C110.377 29.6889 110.23 29.5417 110.048 29.5417H105.032C104.85 29.5417 104.703 29.6889 104.703 29.8706V32.1586C102.971 30.0142 100.784 28.9421 98.142 28.9421C92.8709 28.9421 89.0889 33.0391 89.0889 39.1568ZM94.8512 39.341C94.8512 35.962 96.9546 33.8886 99.7336 33.8886C102.513 33.8886 104.616 35.6491 104.616 39.3339C104.616 43.0188 102.584 44.7934 99.7332 44.7934C96.8822 44.7934 94.8512 42.7202 94.8512 39.341Z" fill="white"/>
</mask>
<g mask="url(#mask1)">
</g>
<path fill-rule="evenodd" clip-rule="evenodd" d="M137.304 39.1568C137.304 45.9749 141.157 49.7258 146.357 49.7258C149.113 49.7258 151.3 48.6741 152.918 46.5698V48.8072C152.918 48.9889 153.065 49.1363 153.247 49.1363H158.263C158.445 49.1363 158.592 48.9889 158.592 48.8072V29.8706C158.592 29.6889 158.445 29.5417 158.263 29.5417H153.247C153.065 29.5417 152.918 29.6889 152.918 29.8706V32.1586C151.186 30.0142 148.999 28.9421 146.357 28.9421C141.085 28.9421 137.304 33.0391 137.304 39.1568ZM143.066 39.341C143.066 35.962 145.169 33.8886 147.948 33.8886C150.727 33.8886 152.831 35.6491 152.831 39.3339C152.831 43.0188 150.798 44.7934 147.948 44.7934C145.097 44.7934 143.066 42.7202 143.066 39.341Z" fill="#2222BF"/>
<mask id="mask2" mask-type="alpha" maskUnits="userSpaceOnUse" x="137" y="28" width="22" height="22">
<path fill-rule="evenodd" clip-rule="evenodd" d="M137.304 39.1568C137.304 45.9749 141.157 49.7258 146.357 49.7258C149.113 49.7258 151.3 48.6741 152.918 46.5698V48.8072C152.918 48.9889 153.065 49.1363 153.247 49.1363H158.263C158.445 49.1363 158.592 48.9889 158.592 48.8072V29.8706C158.592 29.6889 158.445 29.5417 158.263 29.5417H153.247C153.065 29.5417 152.918 29.6889 152.918 29.8706V32.1586C151.186 30.0142 148.999 28.9421 146.357 28.9421C141.085 28.9421 137.304 33.0391 137.304 39.1568ZM143.066 39.341C143.066 35.962 145.169 33.8886 147.948 33.8886C150.727 33.8886 152.831 35.6491 152.831 39.3339C152.831 43.0188 150.798 44.7934 147.948 44.7934C145.097 44.7934 143.066 42.7202 143.066 39.341Z" fill="white"/>
</mask>
<g mask="url(#mask2)">
</g>
<path fill-rule="evenodd" clip-rule="evenodd" d="M120.621 33.2184V29.8583C120.621 29.6765 120.474 29.5293 120.293 29.5293H115.276C115.094 29.5293 114.947 29.6765 114.947 29.8583V48.795C114.947 48.9766 115.094 49.124 115.276 49.124H120.293C120.474 49.124 120.621 48.9766 120.621 48.795V38.6595C120.621 36.0774 122.338 33.6651 125.18 33.6651C127.199 33.6651 128.386 34.8737 128.386 37.2915V48.795C128.386 48.9766 128.533 49.124 128.715 49.124H133.767C133.948 49.124 134.095 48.9766 134.095 48.795V36.719C134.095 31.4844 130.941 28.9297 126.997 28.9297C124.114 28.9297 121.989 30.3592 120.621 33.2184Z" fill="#2222BF"/>
<mask id="mask3" mask-type="alpha" maskUnits="userSpaceOnUse" x="114" y="28" width="21" height="22">
<path fill-rule="evenodd" clip-rule="evenodd" d="M120.621 33.2184V29.8583C120.621 29.6765 120.474 29.5293 120.293 29.5293H115.276C115.094 29.5293 114.947 29.6765 114.947 29.8583V48.795C114.947 48.9766 115.094 49.124 115.276 49.124H120.293C120.474 49.124 120.621 48.9766 120.621 48.795V38.6595C120.621 36.0774 122.338 33.6651 125.18 33.6651C127.199 33.6651 128.386 34.8737 128.386 37.2915V48.795C128.386 48.9766 128.533 49.124 128.715 49.124H133.767C133.948 49.124 134.095 48.9766 134.095 48.795V36.719C134.095 31.4844 130.941 28.9297 126.997 28.9297C124.114 28.9297 121.989 30.3592 120.621 33.2184Z" fill="white"/>
</mask>
<g mask="url(#mask3)">
</g>
<path fill-rule="evenodd" clip-rule="evenodd" d="M41.852 24.3516C41.6701 24.3516 41.5227 24.499 41.5227 24.6806V29.4894H38.9289C38.747 29.4894 38.5996 29.6368 38.5996 29.8186V33.7812C38.5996 33.9629 38.747 34.1103 38.9289 34.1103H41.5227V43.6261C41.5227 45.392 41.9662 47.0242 42.8176 47.9507C43.6687 48.8771 44.7278 49.6896 47.4946 49.6896C49.1343 49.6896 50.2421 49.5564 50.8184 49.2906C50.9349 49.2368 51.0095 49.1203 51.0095 48.9917V45.2471C51.0095 45.0655 50.8621 44.9183 50.6804 44.9183C50.6699 44.9183 50.6596 44.9187 50.6491 44.9195C50.0332 44.9785 49.5018 45.0079 49.0552 45.0079C48.2582 45.0079 47.1832 44.5913 47.1832 43.6261V34.1103H50.6804C50.8621 34.1103 51.0095 33.9629 51.0095 33.7812V29.8186C51.0095 29.6368 50.8621 29.4894 50.6804 29.4894H47.1832V24.6806C47.1832 24.499 47.036 24.3516 46.8541 24.3516H41.852Z" fill="#2222BF"/>
<mask id="mask4" mask-type="alpha" maskUnits="userSpaceOnUse" x="38" y="24" width="14" height="26">
<path fill-rule="evenodd" clip-rule="evenodd" d="M41.852 24.3516C41.6701 24.3516 41.5227 24.499 41.5227 24.6806V29.4894H38.9289C38.747 29.4894 38.5996 29.6368 38.5996 29.8186V33.7812C38.5996 33.9629 38.747 34.1103 38.9289 34.1103H41.5227V43.6261C41.5227 45.392 41.9662 47.0242 42.8176 47.9507C43.6687 48.8771 44.7278 49.6896 47.4946 49.6896C49.1343 49.6896 50.2421 49.5564 50.8184 49.2906C50.9349 49.2368 51.0095 49.1203 51.0095 48.9917V45.2471C51.0095 45.0655 50.8621 44.9183 50.6804 44.9183C50.6699 44.9183 50.6596 44.9187 50.6491 44.9195C50.0332 44.9785 49.5018 45.0079 49.0552 45.0079C48.2582 45.0079 47.1832 44.5913 47.1832 43.6261V34.1103H50.6804C50.8621 34.1103 51.0095 33.9629 51.0095 33.7812V29.8186C51.0095 29.6368 50.8621 29.4894 50.6804 29.4894H47.1832V24.6806C47.1832 24.499 47.036 24.3516 46.8541 24.3516H41.852Z" fill="white"/>
</mask>
<g mask="url(#mask4)">
</g>
<path fill-rule="evenodd" clip-rule="evenodd" d="M80.4021 21.3596C80.2807 21.3596 80.1826 21.4579 80.1826 21.5791V48.9374C80.1826 49.0583 80.2807 49.1566 80.4021 49.1566H85.6132C85.7345 49.1566 85.8326 49.0583 85.8326 48.9374V21.5791C85.8326 21.4579 85.7345 21.3596 85.6132 21.3596H80.4021Z" fill="#2222BF"/>
<mask id="mask5" mask-type="alpha" maskUnits="userSpaceOnUse" x="80" y="21" width="6" height="29">
<path fill-rule="evenodd" clip-rule="evenodd" d="M80.4021 21.3596C80.2807 21.3596 80.1826 21.4579 80.1826 21.5791V48.9374C80.1826 49.0583 80.2807 49.1566 80.4021 49.1566H85.6132C85.7345 49.1566 85.8326 49.0583 85.8326 48.9374V21.5791C85.8326 21.4579 85.7345 21.3596 85.6132 21.3596H80.4021Z" fill="white"/>
</mask>
<g mask="url(#mask5)">
</g>
<path fill-rule="evenodd" clip-rule="evenodd" d="M30.5894 4.7546C30.5703 4.73714 30.5516 4.71947 30.5329 4.7018C30.4956 4.66667 30.4582 4.63154 30.4193 4.59705C28.9556 3.30776 27.2704 2.26249 25.4102 1.49048C24.8467 1.25677 24.2755 1.0502 23.7126 0.876866C22.8523 0.611604 21.9723 0.406505 21.0785 0.261358C21.0712 0.259886 21.0638 0.259044 21.0562 0.257782C21.0535 0.257361 21.0508 0.256941 21.0478 0.25631C20.0225 0.0924408 18.984 0.00766657 17.945 0.00219727C34.6184 9.7988 17.928 37.8092 17.9194 37.8214C17.9145 37.8281 17.9099 37.8347 17.9053 37.8412C17.9135 37.8405 17.9217 37.8399 17.9297 37.8391C17.9377 37.8382 17.9455 37.837 17.9534 37.8357C17.9774 37.8326 17.9989 37.8288 18.0203 37.8241C18.029 37.8222 18.0374 37.8204 18.0458 37.818C18.0704 37.8121 18.0946 37.8048 18.1186 37.7966C18.1226 37.7951 18.1268 37.7938 18.131 37.7924C18.1596 37.7821 18.1878 37.7699 18.2156 37.7562C18.2189 37.7545 18.2221 37.7524 18.2254 37.7507C18.2484 37.7385 18.2707 37.7261 18.2928 37.7122C18.298 37.7087 18.3035 37.7053 18.3087 37.7017C18.3117 37.6998 18.3142 37.6975 18.3172 37.6956C18.319 37.6943 18.3212 37.6931 18.323 37.6916C18.3285 37.6878 18.3342 37.6847 18.3395 37.6807C18.3483 37.6742 18.3567 37.6668 18.3655 37.6596C18.3727 37.654 18.3798 37.6487 18.3868 37.6426C18.3885 37.6413 18.3904 37.6399 18.392 37.6384C18.3944 37.6363 18.3967 37.6348 18.399 37.6329L30.4193 27.0435C30.4584 27.009 30.496 26.9737 30.5337 26.9381C30.5522 26.9207 30.5709 26.9028 30.5888 26.8868C33.8723 23.9146 35.6807 19.9845 35.6807 15.8203C35.6807 15.1688 35.6363 14.5226 35.549 13.885C35.0785 10.4496 33.3586 7.26144 30.5894 4.7546Z" fill="#0081FC"/>
<path fill-rule="evenodd" clip-rule="evenodd" d="M17.7506 37.8213C17.7426 37.8102 17.7351 37.7995 17.7271 37.7883C17.7264 37.7873 17.7256 37.7862 17.725 37.7852C5.60782 14.3587 15.077 0.0399963 17.725 0.00360437C17.6463 0.00255258 17.5676 0.00360437 17.4892 0.00486651C17.4073 0.00612866 17.3257 0.00802188 17.2441 0.0103358C14.8408 0.0801747 12.4507 0.575568 10.2312 1.4963C8.77887 2.09919 7.39892 2.88235 6.1374 3.84958C6.05326 3.91416 5.96954 3.97916 5.88645 4.04542C5.66073 4.22507 5.43859 4.41102 5.22087 4.60266C5.16282 4.65399 5.10917 4.70763 5.05196 4.75938C1.66898 7.82156 -0.0147251 11.7969 0.000420716 15.7683C0.000420716 15.7857 0 15.803 0 15.8202C0 19.9845 1.80845 23.9146 5.0915 26.8863C5.11065 26.9038 5.12937 26.9214 5.1483 26.9391C5.18553 26.9744 5.22298 27.0096 5.26168 27.0436L17.1776 37.5409L17.2822 37.6331C17.283 37.6339 17.2839 37.6343 17.2847 37.6352C17.2885 37.6385 17.2927 37.6415 17.2965 37.6444C17.316 37.661 17.336 37.6768 17.3566 37.6911C17.364 37.6962 17.3716 37.701 17.3789 37.7058C17.3977 37.718 17.4168 37.7296 17.4361 37.7401C17.4435 37.7443 17.4509 37.7483 17.4584 37.7521C17.4818 37.7641 17.5056 37.7748 17.5298 37.7843C17.5335 37.7858 17.5369 37.7877 17.5405 37.7889C17.5691 37.7999 17.5981 37.8091 17.6274 37.8167C17.6337 37.8182 17.64 37.8192 17.6463 37.8207C17.6524 37.8224 17.6585 37.8237 17.6648 37.8251C17.6818 37.8285 17.6983 37.8316 17.7149 37.8342C17.7252 37.8356 17.734 37.8367 17.7431 37.8377C17.7498 37.8386 17.7569 37.8392 17.7639 37.8398C17.7618 37.8369 17.7597 37.8342 17.7576 37.831C17.7553 37.8276 17.7532 37.8247 17.7506 37.8213Z" fill="#2222BF"/>
<path fill-rule="evenodd" clip-rule="evenodd" d="M17.7869 37.8399L17.8402 37.8442C17.8619 37.8442 17.8838 37.843 17.9055 37.8411C17.9101 37.8346 17.9145 37.8282 17.9193 37.8217C17.928 37.8093 17.9364 37.7975 17.9452 37.7853C18.0721 37.6072 18.1974 37.4311 18.3218 37.2565C18.9884 36.3202 19.6159 35.439 20.2038 34.6133C20.5393 34.1421 20.8633 33.6869 21.1755 33.2483C21.1811 33.2406 21.187 33.2326 21.1925 33.2246C21.194 33.2227 21.1952 33.2208 21.1967 33.2189C21.2026 33.2105 21.2085 33.2023 21.2146 33.1939C21.2514 33.1419 21.2882 33.0901 21.3248 33.0388C21.3783 32.9637 21.4313 32.8893 21.4841 32.8152C21.524 32.759 21.564 32.7029 21.6038 32.6471C21.6168 32.629 21.6296 32.6107 21.6427 32.5927C21.6484 32.5844 21.6542 32.5762 21.6599 32.5682C21.689 32.5274 21.7182 32.4866 21.747 32.446C21.7754 32.4061 21.804 32.3659 21.8322 32.3265C23.5245 29.9495 24.7863 28.1774 25.6134 27.0159C25.6588 26.9523 25.7036 26.8892 25.7474 26.8278C26.5177 25.7457 27.1522 24.5452 27.6509 23.2681C27.6711 23.2164 27.6911 23.1644 27.7109 23.1122C27.7323 23.0557 27.7536 22.9991 27.7746 22.9423C27.7946 22.8882 27.8144 22.8341 27.8337 22.7799C27.8802 22.6501 27.9252 22.5195 27.969 22.3884C29.533 17.7029 29.3592 12.157 27.4471 7.66271C27.3705 7.48285 27.2912 7.30447 27.2092 7.12819C27.1909 7.08885 27.1724 7.04952 27.1538 7.01039C26.7502 6.16033 26.2815 5.35298 25.7474 4.60284C25.2779 3.94358 24.7772 3.35521 24.2517 2.83752C24.2503 2.83584 24.2488 2.83436 24.2471 2.83289C24.1564 2.7437 24.0649 2.6564 23.9726 2.57121C23.8239 2.43384 23.673 2.30195 23.5207 2.17552C23.0441 1.78005 22.5508 1.43843 22.0457 1.15045C21.8772 1.05473 21.7077 0.964912 21.5369 0.880769C21.3109 0.76991 21.0831 0.66978 20.8534 0.580167C20.4931 0.439017 20.1287 0.323951 19.7617 0.234759C19.1609 0.0887711 18.5531 0.01178 17.9452 0.00357609C17.9364 0.00336573 17.928 0.00273465 17.9193 0.00273465C17.8918 0.00231394 17.7914 0 17.7637 0L17.7869 37.8399Z" fill="#00C3F2"/>
<mask id="mask6" mask-type="alpha" maskUnits="userSpaceOnUse" x="6" y="0" width="12" height="38">
<path fill-rule="evenodd" clip-rule="evenodd" d="M6.64551 0H17.8358V37.8442H6.64551V0Z" fill="white"/>
</mask>
<g mask="url(#mask6)">
<path fill-rule="evenodd" clip-rule="evenodd" d="M17.8297 37.8442H17.8358V0C17.8337 0 17.8316 0 17.8297 0.000210358C17.8032 0.000420716 17.7771 0.00231394 17.7506 0.00273465C17.742 0.00273465 17.7333 0.00336573 17.7249 0.00357609C15.0769 0.039968 12.4365 1.38542 10.3401 4.04539C10.2795 4.12196 10.2198 4.20022 10.1602 4.2791C10.0803 4.38491 10.0008 4.49283 9.92254 4.60284C9.77088 4.81572 9.62489 5.03323 9.48374 5.25516C9.37056 5.43291 9.26076 5.61319 9.15453 5.79641C5.88409 11.4277 5.8111 19.4993 8.93407 25.2406C9.00601 25.373 9.07901 25.5044 9.15453 25.634C9.39349 26.0457 9.6495 26.4441 9.92254 26.8278C9.92675 26.8337 9.93117 26.8398 9.93559 26.8459C10.1117 27.0935 10.3027 27.3617 10.5057 27.6465C10.658 27.8606 10.8178 28.0851 10.9855 28.3205C12.3206 30.1956 14.1356 32.7447 16.4312 35.9687C16.6481 36.2731 16.8696 36.5844 17.096 36.902C17.1189 36.9344 17.142 36.967 17.1654 36.9994C17.349 37.2575 17.5358 37.5197 17.7249 37.7853C17.7256 37.7864 17.7262 37.7872 17.727 37.7883C17.7348 37.7994 17.7426 37.8104 17.7506 37.8215C17.7529 37.8247 17.7552 37.8278 17.7575 37.8312C17.7596 37.8341 17.7615 37.8371 17.7638 37.8398C17.7811 37.8413 17.7983 37.8426 17.8158 37.8432C17.8204 37.8434 17.8251 37.8442 17.8297 37.8442Z" fill="#57FBDB"/>
</g>
<path fill-rule="evenodd" clip-rule="evenodd" d="M22.0795 41.8882H13.732C13.2273 41.8882 12.8184 42.2973 12.8184 42.8019V45.8017C12.8184 47.9629 14.5702 49.7152 16.7316 49.7152H19.0799C21.2411 49.7152 22.9934 47.9629 22.9934 45.8017V42.8019C22.9934 42.2973 22.5843 41.8882 22.0795 41.8882Z" fill="#2222BF"/>
</svg>
